<svg
                width="30"
                height="30"
                viewBox="0 0 30 30"
                fill="none"
                xmlns="http://www.w3.org/2000/svg"
              >
                <path
                  d="M14.9831 19.9777C17.0519 19.9777 18.729 18.3007 18.729 16.2319C18.729 14.1632 17.0519 12.4861 14.9831 12.4861C12.9144 12.4861 11.2373 14.1632 11.2373 16.2319C11.2373 18.3007 12.9144 19.9777 14.9831 19.9777Z"
                  stroke="black"
                  stroke-width="2"
                />
                <path
                  d="M12.2088 26.2209H17.7576C21.6545 26.2209 23.6036 26.2209 25.0033 25.3032C25.6074 24.9075 26.1276 24.3967 26.5341 23.7998C27.4693 22.4264 27.4693 20.5123 27.4693 16.6865C27.4693 12.8608 27.4693 10.9466 26.5341 9.57318C26.1276 8.97633 25.6074 8.46548 25.0033 8.06985C24.1043 7.47925 22.978 7.26824 21.2537 7.19332C20.4309 7.19332 19.7229 6.5815 19.5618 5.78864C19.4387 5.20787 19.1189 4.68741 18.6564 4.31521C18.1939 3.94302 17.6171 3.74192 17.0234 3.74591H12.943C11.7093 3.74591 10.6468 4.60121 10.4045 5.78864C10.2435 6.5815 9.53549 7.19332 8.71266 7.19332C6.98957 7.26824 5.86333 7.4805 4.96308 8.06985C4.35942 8.46561 3.83967 8.97645 3.43353 9.57318C2.49707 10.9466 2.49707 12.8595 2.49707 16.6865C2.49707 20.5135 2.49707 22.4251 3.43228 23.7998C3.83683 24.3942 4.35625 24.9049 4.96308 25.3032C6.36277 26.2209 8.31185 26.2209 12.2088 26.2209Z"
                  stroke="black"
                  stroke-width="2"
                />
                <path
                  d="M23.7232 12.4861H22.4746"
                  stroke="black"
                  stroke-width="2"
                  stroke-linecap="round"
                />
              </svg>