<svg width="20" height="19" viewBox="0 0 20 19" fill="none" xmlns="http://www.w3.org/2000/svg">
<rect width="20" height="18.5714" fill="white"/>
<rect width="20" height="4.28571" fill="#4F4F4F"/>
<path d="M9.32849 11.4695C9.52372 11.6784 9.52372 12.0213 9.32849 12.2302C9.14277 12.4391 8.83801 12.4391 8.6523 12.2302C8.20629 11.7277 7.95578 11.0466 7.95578 10.3365C7.95578 9.62633 8.20629 8.94522 8.6523 8.44271L10.338 6.54628C10.7847 6.04452 11.3901 5.7627 12.0213 5.7627C12.6526 5.7627 13.258 6.04452 13.7047 6.54628C14.1507 7.04879 14.4012 7.7299 14.4012 8.44003C14.4012 9.15016 14.1507 9.83127 13.7047 10.3338L12.9952 11.132C12.9999 10.6927 12.938 10.2534 12.8047 9.83557L13.0285 9.57842C13.1621 9.42994 13.2682 9.25309 13.3406 9.05813C13.413 8.86318 13.4503 8.65399 13.4503 8.44271C13.4503 8.23142 13.413 8.02224 13.3406 7.82728C13.2682 7.63233 13.1621 7.45548 13.0285 7.30699C12.8965 7.15668 12.7393 7.03734 12.566 6.95589C12.3927 6.87444 12.2068 6.8325 12.019 6.8325C11.8312 6.8325 11.6452 6.87444 11.4719 6.95589C11.2986 7.03734 11.1414 7.15668 11.0094 7.30699L9.32849 9.19807C9.19488 9.34655 9.0888 9.5234 9.0164 9.71835C8.94399 9.91331 8.90671 10.1225 8.90671 10.3338C8.90671 10.5451 8.94399 10.7542 9.0164 10.9492C9.0888 11.1442 9.19488 11.321 9.32849 11.4695ZM10.6713 9.19807C10.8571 8.98914 11.1618 8.98914 11.3475 9.19807C11.7935 9.70058 12.0441 10.3817 12.0441 11.0918C12.0441 11.8019 11.7935 12.4831 11.3475 12.9856L9.66182 14.882C9.21514 15.3838 8.60971 15.6656 7.97849 15.6656C7.34726 15.6656 6.74183 15.3838 6.29515 14.882C5.84914 14.3795 5.59863 13.6984 5.59863 12.9882C5.59863 12.2781 5.84914 11.597 6.29515 11.0945L7.00468 10.2963C6.99991 10.7356 7.06182 11.1749 7.19515 11.5981L6.97134 11.8499C6.83773 11.9983 6.73165 12.1752 6.65925 12.3701C6.58685 12.5651 6.54957 12.7743 6.54957 12.9856C6.54957 13.1969 6.58685 13.406 6.65925 13.601C6.73165 13.7959 6.83773 13.9728 6.97134 14.1213C7.10333 14.2716 7.26053 14.3909 7.43382 14.4724C7.60712 14.5538 7.79306 14.5958 7.98087 14.5958C8.16868 14.5958 8.35462 14.5538 8.52791 14.4724C8.7012 14.3909 8.8584 14.2716 8.99039 14.1213L10.6713 12.2302C10.805 12.0817 10.911 11.9049 10.9834 11.7099C11.0558 11.515 11.0931 11.3058 11.0931 11.0945C11.0931 10.8832 11.0558 10.674 10.9834 10.4791C10.911 10.2841 10.805 10.1073 10.6713 9.95878C10.6251 9.91003 10.5882 9.85112 10.563 9.78569C10.5378 9.72027 10.5248 9.64973 10.5248 9.57842C10.5248 9.50712 10.5378 9.43658 10.563 9.37115C10.5882 9.30573 10.6251 9.24682 10.6713 9.19807Z" fill="#EB5757"/>
<circle cx="2.143" cy="2.14275" r="0.714286" fill="white"/>
<circle cx="4.99993" cy="2.14275" r="0.714286" fill="white"/>
<circle cx="7.85735" cy="2.14275" r="0.714286" fill="white"/>
</svg>
