<svg
                width="36"
                height="36"
                viewBox="0 0 36 36"
                fill="none"
                xmlns="http://www.w3.org/2000/svg"
              >
                <path
                  d="M8.98511 7.39346C9.19579 7.6044 9.31412 7.89034 9.31412 8.18846C9.31412 8.48659 9.19579 8.77252 8.98511 8.98346C7.80112 10.1674 6.86193 11.573 6.22116 13.1199C5.58039 14.6668 5.25059 16.3248 5.25059 17.9992C5.25059 19.6736 5.58039 21.3316 6.22116 22.8785C6.86193 24.4254 7.80112 25.831 8.98511 27.015C9.18994 27.2272 9.30321 27.5115 9.3005 27.8064C9.2978 28.1014 9.17935 28.3835 8.97067 28.592C8.76199 28.8005 8.47977 28.9187 8.18479 28.9211C7.88982 28.9235 7.60569 28.81 7.39361 28.605C1.53611 22.7475 1.53611 13.251 7.39361 7.39346C7.60455 7.18279 7.89049 7.06445 8.18861 7.06445C8.48674 7.06445 8.77418 7.18279 8.98511 7.39346ZM28.6051 7.39346C34.4626 13.251 34.4626 22.749 28.6051 28.6065C28.3919 28.8052 28.1098 28.9134 27.8183 28.9082C27.5269 28.9031 27.2488 28.785 27.0427 28.5789C26.8366 28.3728 26.7185 28.0947 26.7134 27.8032C26.7082 27.5118 26.8164 27.2297 27.0151 27.0165C28.1993 25.8325 29.1387 24.4268 29.7796 22.8798C30.4205 21.3327 30.7504 19.6745 30.7504 18C30.7504 16.3254 30.4205 14.6672 29.7796 13.1202C29.1387 11.5731 28.1993 10.1674 27.0151 8.98346C26.9046 8.88047 26.8159 8.75627 26.7544 8.61827C26.693 8.48027 26.6599 8.3313 26.6572 8.18025C26.6546 8.02919 26.6823 7.87915 26.7389 7.73907C26.7955 7.59898 26.8797 7.47173 26.9866 7.36491C27.0934 7.25808 27.2206 7.17386 27.3607 7.11728C27.5008 7.0607 27.6508 7.03291 27.8019 7.03558C27.953 7.03824 28.1019 7.0713 28.2399 7.13279C28.3779 7.19428 28.5021 7.28293 28.6051 7.39346ZM13.2271 11.6355C13.4378 11.8464 13.5561 12.1323 13.5561 12.4305C13.5561 12.7286 13.4378 13.0145 13.2271 13.2255C12.6001 13.8523 12.1027 14.5965 11.7633 15.4156C11.424 16.2347 11.2493 17.1126 11.2493 17.9992C11.2493 18.8858 11.424 19.7637 11.7633 20.5828C12.1027 21.4019 12.6001 22.1461 13.2271 22.773C13.4258 22.9862 13.534 23.2683 13.5289 23.5597C13.5237 23.8512 13.4057 24.1293 13.1995 24.3354C12.9934 24.5415 12.7153 24.6596 12.4239 24.6647C12.1324 24.6699 11.8504 24.5617 11.6371 24.363C9.94942 22.6752 9.00129 20.3861 9.00129 17.9992C9.00129 15.6124 9.94942 13.3233 11.6371 11.6355C11.8481 11.4248 12.134 11.3065 12.4321 11.3065C12.7302 11.3065 13.0162 11.4248 13.2271 11.6355ZM24.3646 11.6355C26.0523 13.3233 27.0004 15.6124 27.0004 17.9992C27.0004 20.3861 26.0523 22.6752 24.3646 24.363C24.2609 24.4705 24.1368 24.5562 23.9996 24.6152C23.8623 24.6743 23.7147 24.7054 23.5654 24.7067C23.416 24.7081 23.2678 24.6797 23.1295 24.6232C22.9913 24.5667 22.8656 24.4832 22.7599 24.3777C22.6543 24.2721 22.5707 24.1465 22.514 24.0083C22.4574 23.8701 22.4289 23.7219 22.4301 23.5725C22.4313 23.4232 22.4623 23.2755 22.5212 23.1383C22.5801 23.001 22.6657 22.8768 22.7731 22.773C23.3999 22.1462 23.8971 21.402 24.2364 20.5831C24.5756 19.7641 24.7502 18.8864 24.7502 18C24.7502 17.1135 24.5756 16.2358 24.2364 15.4168C23.8971 14.5979 23.3999 13.8538 22.7731 13.227C22.5744 13.0137 22.4662 12.7316 22.4714 12.4402C22.4765 12.1487 22.5946 11.8707 22.8007 11.6645C23.0068 11.4584 23.2849 11.3403 23.5763 11.3352C23.8678 11.3301 24.1499 11.4382 24.3631 11.637M18.0001 15.75C18.5969 15.75 19.1691 15.987 19.5911 16.409C20.0131 16.8309 20.2501 17.4032 20.2501 18C20.2501 18.5967 20.0131 19.169 19.5911 19.591C19.1691 20.0129 18.5969 20.25 18.0001 20.25C17.4034 20.25 16.8311 20.0129 16.4091 19.591C15.9872 19.169 15.7501 18.5967 15.7501 18C15.7501 17.4032 15.9872 16.8309 16.4091 16.409C16.8311 15.987 17.4034 15.75 18.0001 15.75Z"
                  fill="white"
                />
              </svg>
