<svg
    width="30"
    height="30"
    viewBox="0 0 30 30"
    fill="none"
    xmlns="http://www.w3.org/2000/svg"
    >
    <g clip-path="url(#clip0_79_383)">
        <path
        d="M14.9835 0.872803C12.1927 0.872803 9.46459 1.70036 7.14414 3.25084C4.8237 4.80131 3.01513 7.00505 1.94714 9.5834C0.87916 12.1617 0.599727 14.9989 1.14418 17.736C1.68863 20.4732 3.03252 22.9874 5.0059 24.9608C6.97927 26.9342 9.49351 28.2781 12.2307 28.8225C14.9678 29.367 17.805 29.0875 20.3833 28.0195C22.9616 26.9516 25.1654 25.143 26.7159 22.8225C28.2663 20.5021 29.0939 17.774 29.0939 14.9832C29.0939 11.2409 27.6073 7.65186 24.961 5.00565C22.3148 2.35943 18.7258 0.872803 14.9835 0.872803ZM19.6022 18.7291C19.6022 18.9606 19.5103 19.1826 19.3465 19.3463C19.1828 19.51 18.9608 19.602 18.7293 19.602H11.2376C11.0061 19.602 10.7841 19.51 10.6204 19.3463C10.4567 19.1826 10.3647 18.9606 10.3647 18.7291V11.2374C10.3647 11.0059 10.4567 10.7838 10.6204 10.6201C10.7841 10.4564 11.0061 10.3645 11.2376 10.3645H18.7293C18.9608 10.3645 19.1828 10.4564 19.3465 10.6201C19.5103 10.7838 19.6022 11.0059 19.6022 11.2374V18.7291Z"
        stroke="black"
        stroke-width="2"
        />
    </g>
    <defs>
        <clipPath id="clip0_79_383">
        <rect width="29.9667" height="29.9667" fill="white" />
        </clipPath>
    </defs>
    </svg>