 <svg
                width="30"
                height="29"
                viewBox="0 0 30 29"
                fill="none"
                xmlns="http://www.w3.org/2000/svg"
              >
                <path
                  d="M15.6388 24.6175H8.01972C4.21017 24.6175 2.94434 22.0858 2.94434 19.5421V9.39131C2.94434 5.58175 4.21017 4.31592 8.01972 4.31592H15.6388C19.4484 4.31592 20.7142 5.58175 20.7142 9.39131V19.5421C20.7142 23.3516 19.4363 24.6175 15.6388 24.6175Z"
                  stroke="black"
                  stroke-width="2.25"
                  stroke-linecap="round"
                  stroke-linejoin="round"
                />
                <path
                  d="M24.0658 20.615L20.7144 18.2641V10.6571L24.0658 8.30624C25.7054 7.16096 27.0556 7.86019 27.0556 9.87346V19.0598C27.0556 21.0731 25.7054 21.7723 24.0658 20.615Z"
                  stroke="black"
                  stroke-width="2.25"
                  stroke-linecap="round"
                  stroke-linejoin="round"
                />
                <path
                  d="M14.3972 13.2612C15.3959 13.2612 16.2055 12.4516 16.2055 11.4529C16.2055 10.4541 15.3959 9.64453 14.3972 9.64453C13.3985 9.64453 12.5889 10.4541 12.5889 11.4529C12.5889 12.4516 13.3985 13.2612 14.3972 13.2612Z"
                  stroke="black"
                  stroke-width="2.25"
                  stroke-linecap="round"
                  stroke-linejoin="round"
                />
              </svg>